<svg xmlns="http://www.w3.org/2000/svg" viewBox="0 0 50 50">
    <path d="M30.006,15.942c-3.601-3.6-9.46-3.599-13.062,0.003c-3.601,3.598-3.602,9.461,0,13.063c3.602,3.604,9.461,3.59,13.062-0.001C33.605,25.4,33.606,19.543,30.006,15.942z M24.736,29.402c-0.579,0.578-6.148-0.389-7.679-4.96c-0.343-1.007-0.547-2.707,0.179-3.077c0.917-0.48,2.006,1.027,2.271,2.115C20.557,27.782,25.306,28.833,24.736,29.402z" />
	<path d="M42.838,0H9.56C7.444,0,5.713,1.731,5.713,3.845v2.4H3.766c-0.248,0-0.451,0.202-0.451,0.45v4.953c0,0.248,0.203,0.451,0.451,0.451h1.948v4.697H3.766c-0.248,0-0.451,0.202-0.451,0.45V22.2c0,0.248,0.203,0.45,0.451,0.45h1.948v4.698H3.766c-0.248,0-0.451,0.201-0.451,0.449v4.954c0,0.248,0.203,0.45,0.451,0.45h1.948V37.9H3.766c-0.248,0-0.451,0.203-0.451,0.451v4.953c0,0.247,0.203,0.449,0.451,0.449h1.948v2.4C5.713,48.27,7.444,50,9.56,50h33.278c2.115,0,3.847-1.73,3.847-3.845V3.845C46.685,1.731,44.954,0,42.838,0z M14.65,31.298c-4.867-4.864-4.867-12.784,0.003-17.648c4.866-4.864,12.779-4.864,17.645,0c4.865,4.863,4.865,12.784,0,17.648C27.433,36.162,19.518,36.162,14.65,31.298z M40.208,39.208c-1.054,1.056-2.771,1.058-3.83,0l-5.344-5.354c-0.027-0.025-0.047-0.059-0.072-0.086c0.748-0.48,1.451-1.059,2.101-1.707s1.226-1.353,1.706-2.093c0.027,0.021,0.061,0.04,0.086,0.066l5.355,5.344C41.264,36.436,41.264,38.152,40.208,39.208z" />
</svg>